HIERARCHY
ROOT Hips
{
	OFFSET 0.053599 88.859886 3.107447
	CHANNELS 6 Xposition Yposition Zposition Zrotation Yrotation Xrotation 
	JOINT Spine
	{
		OFFSET -0.000000 8.814246 -2.080107
		CHANNELS 3 Zrotation Yrotation Xrotation
		JOINT Spine1
		{
			OFFSET 0.000000 8.844141 0.000000
			CHANNELS 3 Zrotation Yrotation Xrotation
			JOINT Spine2
			{
				OFFSET -0.000000 11.682268 0.000000
				CHANNELS 3 Zrotation Yrotation Xrotation
				JOINT Spine3
				{
					OFFSET 0.000000 11.746700 0.000000
					CHANNELS 3 Zrotation Yrotation Xrotation
					JOINT Neck
					{
						OFFSET -0.000000 17.658264 -0.000000
						CHANNELS 3 Zrotation Yrotation Xrotation
						JOINT Neck1
						{
							OFFSET -0.000000 5.101515 -0.000000
							CHANNELS 3 Zrotation Yrotation Xrotation
							JOINT Head
							{
								OFFSET 0.000000 5.101515 0.000000
								CHANNELS 3 Zrotation Yrotation Xrotation
								JOINT HeadEnd
								{
									OFFSET 0.000000 11.655085 0.000000
									CHANNELS 3 Zrotation Yrotation Xrotation
									End Site
									{
										OFFSET 0.000000 0.000000 0.000000
									}
								}
							}
						}
					}
					JOINT RightShoulder
					{
						OFFSET -2.625389 11.175210 0.000000
						CHANNELS 3 Zrotation Yrotation Xrotation
						JOINT RightArm
						{
							OFFSET -0.000000 10.434715 -0.000000
							CHANNELS 3 Zrotation Yrotation Xrotation
							JOINT RightForeArm
							{
								OFFSET -0.000000 29.628420 0.000000
								CHANNELS 3 Zrotation Yrotation Xrotation
								JOINT RightHand
								{
									OFFSET -0.000000 22.857611 0.000000
									CHANNELS 3 Zrotation Yrotation Xrotation
									JOINT RightHandThumb1
									{
										OFFSET -2.867323 3.959563 2.944291
										CHANNELS 3 Zrotation Yrotation Xrotation
										JOINT RightHandThumb2
										{
											OFFSET 0.000000 3.350399 0.000000
											CHANNELS 3 Zrotation Yrotation Xrotation
											JOINT RightHandThumb3
											{
												OFFSET 0.000000 3.756509 -0.000000
												CHANNELS 3 Zrotation Yrotation Xrotation
												JOINT RightHandThumb4
												{
													OFFSET 0.000000 3.147345 0.000000
													CHANNELS 3 Zrotation Yrotation Xrotation
													End Site
													{
														OFFSET 0.000000 0.000000 0.000000
													}
												}
											}
										}
									}
									JOINT RightHandIndex1
									{
										OFFSET -0.086752 10.030893 2.345280
										CHANNELS 3 Zrotation Yrotation Xrotation
										JOINT RightHandIndex2
										{
											OFFSET -0.000000 4.061090 0.000000
											CHANNELS 3 Zrotation Yrotation Xrotation
											JOINT RightHandIndex3
											{
												OFFSET -0.000000 3.248873 0.000000
												CHANNELS 3 Zrotation Yrotation Xrotation
												JOINT RightHandIndex4
												{
													OFFSET 0.000000 2.639709 -0.000000
													CHANNELS 3 Zrotation Yrotation Xrotation
													End Site
													{
														OFFSET 0.000000 0.000000 0.000000
													}
												}
											}
										}
									}
									JOINT RightHandMiddle1
									{
										OFFSET 0.104102 9.502952 0.006768
										CHANNELS 3 Zrotation Yrotation Xrotation
										JOINT RightHandMiddle2
										{
											OFFSET 0.000000 4.568727 0.000000
											CHANNELS 3 Zrotation Yrotation Xrotation
											JOINT RightHandMiddle3
											{
												OFFSET 0.000000 3.654981 -0.000000
												CHANNELS 3 Zrotation Yrotation Xrotation
												JOINT RightHandMiddle4
												{
													OFFSET -0.000000 2.741236 -0.000000
													CHANNELS 3 Zrotation Yrotation Xrotation
													End Site
													{
														OFFSET 0.000000 0.000000 0.000000
													}
												}
											}
										}
									}
									JOINT RightHandRing1
									{
										OFFSET 0.086752 8.921708 -2.267442
										CHANNELS 3 Zrotation Yrotation Xrotation
										JOINT RightHandRing2
										{
											OFFSET -0.000000 4.061090 0.000000
											CHANNELS 3 Zrotation Yrotation Xrotation
											JOINT RightHandRing3
											{
												OFFSET 0.000000 3.654981 -0.000000
												CHANNELS 3 Zrotation Yrotation Xrotation
												JOINT RightHandRing4
												{
													OFFSET 0.000000 2.741236 -0.000000
													CHANNELS 3 Zrotation Yrotation Xrotation
													End Site
													{
														OFFSET 0.000000 0.000000 0.000000
													}
												}
											}
										}
									}
									JOINT RightHandPinky1
									{
										OFFSET -0.173504 7.976997 -4.467199
										CHANNELS 3 Zrotation Yrotation Xrotation
										JOINT RightHandPinky2
										{
											OFFSET 0.000000 3.350399 -0.000000
											CHANNELS 3 Zrotation Yrotation Xrotation
											JOINT RightHandPinky3
											{
												OFFSET -0.000000 2.842763 0.000000
												CHANNELS 3 Zrotation Yrotation Xrotation
												JOINT RightHandPinky4
												{
													OFFSET -0.000000 2.639709 0.000000
													CHANNELS 3 Zrotation Yrotation Xrotation
													End Site
													{
														OFFSET 0.000000 0.000000 0.000000
													}
												}
											}
										}
									}
									JOINT RightForeArmEnd
									{
										OFFSET 0.000000 0.000000 0.000000
										CHANNELS 3 Zrotation Yrotation Xrotation
										End Site
										{
											OFFSET 0.000000 0.000000 0.000000
										}
									}
								}
								JOINT RightArmEnd
								{
									OFFSET 0.000000 0.000000 0.000000
									CHANNELS 3 Zrotation Yrotation Xrotation
									End Site
									{
										OFFSET 0.000000 0.000000 0.000000
									}
								}
							}
						}
					}
					JOINT LeftShoulder
					{
						OFFSET 2.625389 11.175210 0.000000
						CHANNELS 3 Zrotation Yrotation Xrotation
						JOINT LeftArm
						{
							OFFSET 0.000000 10.813635 -0.000000
							CHANNELS 3 Zrotation Yrotation Xrotation
							JOINT LeftForeArm
							{
								OFFSET 0.000000 28.724781 0.000000
								CHANNELS 3 Zrotation Yrotation Xrotation
								JOINT LeftHand
								{
									OFFSET 0.644384 25.716167 -0.328871
									CHANNELS 3 Zrotation Yrotation Xrotation
									JOINT LeftHandThumb1
									{
										OFFSET 2.867323 3.959563 2.944291
										CHANNELS 3 Zrotation Yrotation Xrotation
										JOINT LeftHandThumb2
										{
											OFFSET 0.000000 3.350399 0.000000
											CHANNELS 3 Zrotation Yrotation Xrotation
											JOINT LeftHandThumb3
											{
												OFFSET -0.000000 3.756509 0.000000
												CHANNELS 3 Zrotation Yrotation Xrotation
												JOINT LeftHandThumb4
												{
													OFFSET -0.000000 3.100000 0.000000
													CHANNELS 3 Zrotation Yrotation Xrotation
													End Site
													{
														OFFSET 0.000000 0.000000 0.000000
													}
												}
											}
										}
									}
									JOINT LeftHandIndex1
									{
										OFFSET 0.086752 10.030893 2.345280
										CHANNELS 3 Zrotation Yrotation Xrotation
										JOINT LeftHandIndex2
										{
											OFFSET -0.000000 4.061090 -0.000000
											CHANNELS 3 Zrotation Yrotation Xrotation
											JOINT LeftHandIndex3
											{
												OFFSET 0.000000 3.248873 -0.000000
												CHANNELS 3 Zrotation Yrotation Xrotation
												JOINT LeftHandIndex4
												{
													OFFSET 0.000000 2.639709 -0.000000
													CHANNELS 3 Zrotation Yrotation Xrotation
													End Site
													{
														OFFSET 0.000000 0.000000 0.000000
													}
												}
											}
										}
									}
									JOINT LeftHandMiddle1
									{
										OFFSET -0.104102 9.502952 0.006768
										CHANNELS 3 Zrotation Yrotation Xrotation
										JOINT LeftHandMiddle2
										{
											OFFSET -0.000000 4.568727 -0.000000
											CHANNELS 3 Zrotation Yrotation Xrotation
											JOINT LeftHandMiddle3
											{
												OFFSET 0.000000 3.654981 0.000000
												CHANNELS 3 Zrotation Yrotation Xrotation
												JOINT LeftHandMiddle4
												{
													OFFSET 0.000000 2.741236 -0.000000
													CHANNELS 3 Zrotation Yrotation Xrotation
													End Site
													{
														OFFSET 0.000000 0.000000 0.000000
													}
												}
											}
										}
									}
									JOINT LeftHandRing1
									{
										OFFSET -0.086752 8.921708 -2.267442
										CHANNELS 3 Zrotation Yrotation Xrotation
										JOINT LeftHandRing2
										{
											OFFSET 0.000000 4.061090 0.000000
											CHANNELS 3 Zrotation Yrotation Xrotation
											JOINT LeftHandRing3
											{
												OFFSET 0.000000 3.654981 0.000000
												CHANNELS 3 Zrotation Yrotation Xrotation
												JOINT LeftHandRing4
												{
													OFFSET 0.000000 2.741236 0.000000
													CHANNELS 3 Zrotation Yrotation Xrotation
													End Site
													{
														OFFSET 0.000000 0.000000 0.000000
													}
												}
											}
										}
									}
									JOINT LeftHandPinky1
									{
										OFFSET 0.173504 7.976997 -4.467199
										CHANNELS 3 Zrotation Yrotation Xrotation
										JOINT LeftHandPinky2
										{
											OFFSET -0.000000 3.350399 -0.000000
											CHANNELS 3 Zrotation Yrotation Xrotation
											JOINT LeftHandPinky3
											{
												OFFSET 0.000000 2.842763 0.000000
												CHANNELS 3 Zrotation Yrotation Xrotation
												JOINT LeftHandPinky4
												{
													OFFSET -0.000000 2.639709 -0.000000
													CHANNELS 3 Zrotation Yrotation Xrotation
													End Site
													{
														OFFSET 0.000000 0.000000 0.000000
													}
												}
											}
										}
									}
									JOINT LeftForeArmEnd
									{
										OFFSET 0.000000 0.000000 0.000000
										CHANNELS 3 Zrotation Yrotation Xrotation
										End Site
										{
											OFFSET 0.000000 0.000000 0.000000
										}
									}
								}
								JOINT LeftArmEnd
								{
									OFFSET 0.000000 0.000000 0.000000
									CHANNELS 3 Zrotation Yrotation Xrotation
									End Site
									{
										OFFSET 0.000000 0.000000 0.000000
									}
								}
							}
						}
					}
				}
			}
		}
	}
	JOINT RightUpLeg
	{
		OFFSET -11.289943 0.000000 0.000000
		CHANNELS 3 Zrotation Yrotation Xrotation
		JOINT RightLeg
		{
			OFFSET 0.000000 -38.200325 0.000000
			CHANNELS 3 Zrotation Yrotation Xrotation
			JOINT RightFoot
			{
				OFFSET -0.000000 -39.900856 -0.000000
				CHANNELS 3 Zrotation Yrotation Xrotation
				JOINT RightToeBase
				{
					OFFSET 0.000000 0.000000 15.261641
					CHANNELS 3 Zrotation Yrotation Xrotation
					JOINT RightToeBaseEnd
					{
						OFFSET 0.000000 0.000000 7.370709
						CHANNELS 3 Zrotation Yrotation Xrotation
						End Site
						{
							OFFSET 0.000000 0.000000 0.000000
						}
					}
				}
				JOINT RightLegEnd
				{
					OFFSET 0.000000 0.000000 0.000000
					CHANNELS 3 Zrotation Yrotation Xrotation
					End Site
					{
						OFFSET 0.000000 0.000000 0.000000
					}
				}
			}
			JOINT RightUpLegEnd
			{
				OFFSET 0.000000 0.000000 0.000000
				CHANNELS 3 Zrotation Yrotation Xrotation
				End Site
				{
					OFFSET 0.000000 0.000000 0.000000
				}
			}
		}
	}
	JOINT LeftUpLeg
	{
		OFFSET 11.315661 -0.000000 0.000000
		CHANNELS 3 Zrotation Yrotation Xrotation
		JOINT LeftLeg
		{
			OFFSET -0.000000 -38.200325 -0.000000
			CHANNELS 3 Zrotation Yrotation Xrotation
			JOINT LeftFoot
			{
				OFFSET 0.000000 -39.900856 -0.000000
				CHANNELS 3 Zrotation Yrotation Xrotation
				JOINT LeftToeBase
				{
					OFFSET -0.000000 -0.000000 15.261641
					CHANNELS 3 Zrotation Yrotation Xrotation
					JOINT LeftToeBaseEnd
					{
						OFFSET 0.000000 -0.000000 7.539996
						CHANNELS 3 Zrotation Yrotation Xrotation
						End Site
						{
							OFFSET 0.000000 0.000000 0.000000
						}
					}
				}
				JOINT LeftLegEnd
				{
					OFFSET 0.000000 0.000000 0.000000
					CHANNELS 3 Zrotation Yrotation Xrotation
					End Site
					{
						OFFSET 0.000000 0.000000 0.000000
					}
				}
			}
			JOINT LeftUpLegEnd
			{
				OFFSET 0.000000 0.000000 0.000000
				CHANNELS 3 Zrotation Yrotation Xrotation
				End Site
				{
					OFFSET 0.000000 0.000000 0.000000
				}
			}
		}
	}
}
MOTION
Frames: 4
Frame Time: 0.016667
0.258433 88.646141 3.091502 0.382705 0.820151 -11.743718 0.905364 0.029958 7.299244 -0.811155 0.359310 3.419554 -0.360098 -0.001013 5.228672 -1.358824 0.381294 5.352908 3.128814 -0.469560 6.137030 0.527312 0.564897 -2.686084 0.056911 -0.843956 -19.762459 0.000000 0.000000 0.000000 92.528099 -0.255673 10.348783 68.972633 -21.185194 2.935126 0.384113 19.086361 32.770863 -9.323132 10.082183 -9.048512 16.130543 31.390444 65.827812 -4.279973 -4.992076 -9.351272 -3.024447 -3.328632 -6.301994 0.000000 0.000000 0.000000 -16.311737 -5.898718 10.880298 0.171976 0.599794 0.232903 -0.130066 0.159809 0.303577 0.000000 0.000000 0.000000 -14.811872 -0.757028 6.654528 -0.613615 0.568730 0.048446 -0.129870 0.056776 0.058610 0.000000 0.000000 0.000000 -11.306427 6.568935 1.764880 0.138664 -1.073398 -0.192323 0.046142 -0.075408 -0.097398 0.000000 0.000000 0.000000 -8.925250 14.521379 -3.922264 1.086384 -2.112262 -0.537428 0.810661 -0.132393 -0.423178 0.000000 0.000000 0.000000 0.000000 0.000000 0.000000 0.000000 0.000000 0.000000 -90.359268 0.142895 5.219847 -71.194260 16.363144 -6.671892 -0.272073 -12.391055 63.125534 14.838018 -6.598471 -10.978389 -15.183368 -31.743969 66.849861 3.104688 3.087020 -6.051702 2.096804 2.136733 -4.241375 0.000000 0.000000 0.000000 18.743896 -12.136293 17.021891 -0.130428 0.636559 0.037762 -0.199615 0.165482 -0.032597 0.000000 0.000000 0.000000 17.506643 -6.668765 10.859660 -0.303609 0.560496 -0.024983 -0.440396 0.066159 -0.011941 0.000000 0.000000 0.000000 12.600611 2.164167 3.400253 -1.951039 -1.081174 0.208367 -2.034311 -0.072323 0.151125 0.000000 0.000000 0.000000 5.746880 12.248092 -4.720023 -4.199957 -2.081053 0.902813 -3.882075 -0.038037 0.842023 0.000000 0.000000 0.000000 0.000000 0.000000 0.000000 0.000000 0.000000 0.000000 -1.226669 -10.059461 15.626227 -0.078929 -0.704528 5.702656 -2.811063 -8.773330 16.480690 -0.895880 0.851392 -18.132566 0.000000 0.000000 0.000000 0.000000 0.000000 0.000000 0.000000 0.000000 0.000000 -1.557569 -6.439903 9.984725 0.070144 0.333808 10.941923 3.520589 -2.077570 16.288548 0.205093 -0.515088 -20.502508 0.000000 0.000000 0.000000 0.000000 0.000000 0.000000 0.000000 0.000000 0.000000 
0.272003 88.645538 3.117483 0.361566 0.760679 -11.784952 0.926730 0.028326 7.310397 -0.842457 0.365758 3.391971 -0.336216 -0.033025 5.286516 -1.367792 0.373033 5.336092 3.155338 -0.545276 6.055929 0.526911 0.497145 -2.707162 0.072605 -0.856930 -19.750608 0.000000 0.000000 0.000000 92.538567 -0.264894 10.356063 68.869522 -21.212084 3.032608 0.377206 19.090717 33.021564 -9.140254 10.423790 -9.141611 16.208445 31.359972 65.740555 -4.389352 -5.139165 -9.609619 -3.104016 -3.429359 -6.487117 0.000000 0.000000 0.000000 -15.755816 -5.989630 10.794788 0.178487 0.599404 0.242260 -0.128028 0.159483 0.313010 0.000000 0.000000 0.000000 -14.243987 -0.850093 6.622182 -0.608628 0.568921 0.052261 -0.116668 0.056781 0.061982 0.000000 0.000000 0.000000 -10.655326 6.462698 1.818172 0.150918 -1.073419 -0.195965 0.067757 -0.074827 -0.100722 0.000000 0.000000 0.000000 -8.206828 14.408283 -3.814747 1.132209 -2.112122 -0.539791 0.851727 -0.133315 -0.424990 0.000000 0.000000 0.000000 0.000000 0.000000 0.000000 0.000000 0.000000 0.000000 -90.343933 0.149527 5.237589 -71.176590 16.333147 -6.623996 -0.259233 -12.415275 63.500156 14.294629 -7.359011 -11.072847 -15.309764 -31.692711 66.709000 3.282724 3.332128 -6.471301 2.227358 2.303967 -4.530652 0.000000 0.000000 0.000000 17.780279 -11.979572 16.726597 -0.084199 0.634775 0.024894 -0.154862 0.163866 -0.045544 0.000000 0.000000 0.000000 16.512625 -6.506879 10.641093 -0.286094 0.559921 -0.030248 -0.415261 0.065421 -0.016713 0.000000 0.000000 0.000000 11.429020 2.359083 3.283987 -2.017607 -1.080218 0.217925 -2.098668 -0.070990 0.157578 0.000000 0.000000 0.000000 4.541400 12.436947 -4.762127 -4.345560 -2.076867 0.929480 -4.027209 -0.033876 0.869888 0.000000 0.000000 0.000000 0.000000 0.000000 0.000000 0.000000 0.000000 0.000000 -1.233496 -10.056397 15.690701 -0.079274 -0.704903 5.711254 -2.787339 -8.777671 16.492195 -0.895980 0.856173 -18.127663 0.000000 0.000000 0.000000 0.000000 0.000000 0.000000 0.000000 0.000000 0.000000 -1.562761 -6.454956 10.024405 0.070083 0.334159 10.966198 3.543848 -2.079243 16.252319 0.205065 -0.514796 -20.497360 0.000000 0.000000 0.000000 0.000000 0.000000 0.000000 0.000000 0.000000 0.000000 
0.283872 88.644470 3.144029 0.336233 0.694172 -11.830367 0.950388 0.027038 7.322352 -0.876216 0.373326 3.361087 -0.311104 -0.059937 5.349911 -1.378844 0.367888 5.319332 3.194219 -0.640253 5.974281 0.525557 0.410680 -2.729529 0.093658 -0.868612 -19.746534 0.000000 0.000000 0.000000 92.551949 -0.274543 10.357635 68.745689 -21.243853 3.121354 0.370370 19.109953 33.317989 -8.909051 10.781727 -9.230111 16.299284 31.325384 65.641373 -4.512121 -5.309767 -9.904325 -3.193880 -3.545206 -6.698266 0.000000 0.000000 0.000000 -15.126025 -6.096276 10.710625 0.203913 0.597385 0.259325 -0.107317 0.157440 0.329282 0.000000 0.000000 0.000000 -13.609400 -0.955598 6.593879 -0.584651 0.568374 0.059330 -0.084165 0.056156 0.068104 0.000000 0.000000 0.000000 -9.949625 6.347216 1.879487 0.181270 -1.072574 -0.203331 0.110166 -0.073394 -0.107113 0.000000 0.000000 0.000000 -7.444067 14.285725 -3.697508 1.196675 -2.109392 -0.552650 0.911022 -0.131719 -0.435976 0.000000 0.000000 0.000000 0.000000 0.000000 0.000000 0.000000 0.000000 0.000000 -90.325340 0.153770 5.247336 -71.132507 16.278322 -6.568367 -0.243622 -12.487529 63.969978 13.580864 -8.280452 -11.161318 -15.482572 -31.623674 66.516388 3.522468 3.666737 -7.039689 2.404313 2.531621 -4.927172 0.000000 0.000000 0.000000 16.442371 -11.761101 16.326843 -0.035591 0.630959 0.004889 -0.107598 0.160131 -0.065098 0.000000 0.000000 0.000000 15.144326 -6.282110 10.342685 -0.271354 0.558426 -0.038648 -0.392723 0.063924 -0.024165 0.000000 0.000000 0.000000 9.864591 2.619292 3.118207 -2.108033 -1.077879 0.233125 -2.185578 -0.068493 0.168155 0.000000 0.000000 0.000000 2.964296 12.677327 -4.826011 -4.533851 -2.068767 0.975187 -4.214294 -0.025981 0.914362 0.000000 0.000000 0.000000 0.000000 0.000000 0.000000 0.000000 0.000000 0.000000 -1.238133 -10.059771 15.761247 -0.079513 -0.705031 5.720339 -2.765073 -8.779344 16.501785 -0.895094 0.861192 -18.122740 0.000000 0.000000 0.000000 0.000000 0.000000 0.000000 0.000000 0.000000 0.000000 -1.567379 -6.476060 10.068879 0.069939 0.334359 10.988575 3.569222 -2.083704 16.209927 0.205534 -0.513761 -20.489996 0.000000 0.000000 0.000000 0.000000 0.000000 0.000000 0.000000 0.000000 0.000000 
0.294415 88.642944 3.170798 0.308305 0.622855 -11.877704 0.974893 0.026608 7.336021 -0.910030 0.381554 3.326995 -0.287374 -0.077444 5.414719 -1.391332 0.366851 5.301862 3.242194 -0.750158 5.894138 0.523667 0.307363 -2.754625 0.120722 -0.879188 -19.752110 0.000000 0.000000 0.000000 92.562485 -0.283909 10.355083 68.604485 -21.282183 3.175112 0.362777 19.151175 33.693302 -8.621511 11.162494 -9.306573 16.406540 31.285612 65.526962 -4.651141 -5.511124 -10.244950 -3.296600 -3.680524 -6.941810 0.000000 0.000000 0.000000 -14.381267 -6.228199 10.627301 0.255707 0.592959 0.288423 -0.060956 0.152878 0.356342 0.000000 0.000000 0.000000 -12.871302 -1.080892 6.571037 -0.534833 0.566766 0.071363 -0.024575 0.054610 0.078483 0.000000 0.000000 0.000000 -9.159088 6.217008 1.949775 0.240867 -1.070524 -0.216226 0.183309 -0.070864 -0.118046 0.000000 0.000000 0.000000 -6.615956 14.151790 -3.568634 1.291948 -2.103680 -0.580064 1.000245 -0.127015 -0.459635 0.000000 0.000000 0.000000 0.000000 0.000000 0.000000 0.000000 0.000000 0.000000 -90.297775 0.153888 5.246451 -71.054733 16.195061 -6.504122 -0.223964 -12.617607 64.542809 12.642352 -9.400543 -11.227570 -15.718870 -31.530426 66.253380 3.845041 4.124039 -7.810512 2.644120 2.841864 -5.469556 0.000000 0.000000 0.000000 14.580748 -11.452093 15.778383 -0.002766 0.624705 -0.023559 -0.076402 0.153847 -0.092643 0.000000 0.000000 0.000000 13.258204 -5.967401 9.933802 -0.275722 0.555788 -0.050991 -0.389672 0.061448 -0.034986 0.000000 0.000000 0.000000 7.771010 2.966970 2.888494 -2.241305 -1.073807 0.255400 -2.313774 -0.064559 0.184073 0.000000 0.000000 0.000000 0.897455 12.980974 -4.906454 -4.784686 -2.055878 1.046018 -4.462650 -0.013630 0.980092 0.000000 0.000000 0.000000 0.000000 0.000000 0.000000 0.000000 0.000000 0.000000 -1.241703 -10.066620 15.835151 -0.079564 -0.704794 5.730064 -2.744956 -8.777651 16.507851 -0.892986 0.866010 -18.119123 0.000000 0.000000 0.000000 0.000000 0.000000 0.000000 0.000000 0.000000 0.000000 -1.573748 -6.507114 10.114690 0.069733 0.334530 11.008276 3.593593 -2.091601 16.163441 0.206511 -0.512196 -20.482813 0.000000 0.000000 0.000000 0.000000 0.000000 0.000000 0.000000 0.000000 0.000000 
